<?xml version="1.0" encoding="utf-8"?>
<!-- Generator: Adobe Illustrator 27.0.0, SVG Export Plug-In . SVG Version: 6.00 Build 0)  -->
<svg version="1.1" id="Layer_1" xmlns="http://www.w3.org/2000/svg" xmlns:xlink="http://www.w3.org/1999/xlink" x="0px" y="0px"
	 viewBox="0 0 700 700" style="enable-background:new 0 0 700 700;" xml:space="preserve">
<style type="text/css">
	.st0{fill:#FFFFFF;}
</style>
<g>
	<path class="st0" d="M83.4,247L267.7,62.7c17.4-17.4,45.9-17.4,63.8,0c9,9,13.4,20.2,13.4,31.9s-4.5,23-13.4,31.9L222.3,235.2
		h362.3c12.3,0,23.5,5,31.9,13.4c8.4,8.4,13.4,19.6,13.4,31.9c0,24.6-20.2,45.4-45.4,45.4H223.4L331.5,434c9,9,13.4,20.2,13.4,31.9
		s-4.5,23-13.4,31.9c-17.4,17.4-46.5,17.4-63.8,0L83.4,313c-9-9-13.4-20.2-13.4-31.9V280v-1.1C70,267.1,74.5,255.9,83.4,247
		L83.4,247z"/>
</g>
</svg>
