<?xml version="1.0" encoding="utf-8"?>
<!-- Generator: Adobe Illustrator 27.0.0, SVG Export Plug-In . SVG Version: 6.00 Build 0)  -->
<svg version="1.1" id="Layer_1" xmlns="http://www.w3.org/2000/svg" xmlns:xlink="http://www.w3.org/1999/xlink" x="0px" y="0px"
	 viewBox="0 0 700 700" style="enable-background:new 0 0 700 700;" xml:space="preserve">
<style type="text/css">
	.st0{fill:#FFFFFF;}
</style>
<g>
	<path class="st0" d="M616.8,247L432.4,62.6c-8.4-8.8-20-13.9-32.1-14c-12.2-0.2-23.9,4.6-32.5,13.2c-8.6,8.6-13.4,20.3-13.2,32.5
		c0.1,12.2,5.2,23.8,14,32.1l109,108.8H115.1c-16.1,0-31,8.6-39.1,22.6c-8.1,14-8.1,31.2,0,45.1s23,22.6,39.1,22.6h361.4l-108,108.1
		c-10.9,11.5-15,27.9-10.8,43.2c4.2,15.3,16.2,27.2,31.5,31.4c15.3,4.2,31.7,0.1,43.1-10.8L616.8,313c8.5-8.4,13.3-19.9,13.2-31.9
		c0-0.4,0-0.8,0-1.1c0-0.4,0-0.7,0-1.1C630,266.9,625.2,255.4,616.8,247L616.8,247z"/>
</g>
</svg>
